<?xml version="1.0" encoding="utf-8" ?>
<svg xmlns="http://www.w3.org/2000/svg" xmlns:xlink="http://www.w3.org/1999/xlink" width="1024" height="1024">
	<path fill="rgba(0,0,0,0)" d="M0 0L1024 0L1024 1024L0 1024L0 0Z"/>
	<path fill="#FEFEFE" d="M511.445 128.819C515.959 130.403 622.485 237.799 636.07 251.216C636.692 278.223 636.15 305.355 636.056 332.37C625.897 340.264 613.175 347.18 602.228 354.173L555.017 384.315C540.925 393.16 526.649 401.759 512.836 411.036C503.616 407.418 488.063 395.756 478.804 389.925L388.441 332.538C387.977 305.366 388.441 278.11 388.466 250.929L511.445 128.819Z"/>
	<path fill="#FEFEFE" d="M837.414 259.993C838.586 261.608 837.978 329.83 837.999 338.488C833.846 340.706 829.882 343.782 825.934 346.364Q810.468 356.431 795.249 366.868C772.99 381.831 750.387 396.186 728.259 411.367C717.196 418.956 705.784 426.029 694.623 433.47L594.472 500.062C567.119 518.086 540.388 537.446 512.278 554.256C487.562 539.763 464.213 522.081 440.241 506.298L272.419 395.077Q243.458 375.782 214.294 356.797C205.44 350.972 196.668 343.858 187.3 338.981C186.083 312.767 187.017 286.093 187.132 259.834C201.889 269.357 216.347 279.416 231.034 289.061Q317.623 345.861 403.476 403.767L475.961 452.298C487.976 460.377 500.37 468.126 511.967 476.787C527.696 467.056 542.935 456.33 558.371 446.125Q609.833 412.378 660.788 377.871Q749.397 319.376 837.414 259.993Z"/>
	<path fill="#FEFEFE" d="M837.916 360.475C838.686 365.882 838.025 372.234 838.016 377.74L837.964 416.52C837.952 446.116 838.984 476.093 837.245 505.624Q836.683 514.237 835.78 522.821Q834.877 531.405 833.635 539.946Q832.392 548.487 830.811 556.972Q829.231 565.457 827.315 573.873Q825.399 582.289 823.15 590.622Q820.902 598.955 818.325 607.193Q815.748 615.43 812.846 623.559Q809.944 631.688 806.722 639.695C762.692 746.441 681.665 831.125 574.445 875.542C562.704 880.406 520.375 896.558 510.744 896.106C502.562 895.722 467.622 882.526 458.606 878.785C430.396 867.079 403.196 853.533 377.614 836.743Q374.359 834.598 371.145 832.392Q367.931 830.187 364.758 827.922Q361.586 825.657 358.456 823.333Q355.327 821.009 352.241 818.627Q349.155 816.246 346.114 813.807Q343.074 811.368 340.079 808.872Q337.084 806.377 334.136 803.827Q331.189 801.276 328.289 798.671Q325.389 796.066 322.539 793.407Q319.688 790.748 316.888 788.036Q314.087 785.325 311.338 782.562Q308.588 779.799 305.891 776.984Q303.194 774.17 300.549 771.306Q297.905 768.443 295.314 765.53Q292.724 762.617 290.188 759.657Q287.652 756.696 285.172 753.689Q282.692 750.681 280.268 747.628Q277.845 744.575 275.479 741.478Q273.112 738.38 270.804 735.239Q268.496 732.097 266.247 728.913Q263.998 725.73 261.809 722.504Q259.62 719.279 257.491 716.014Q255.362 712.748 253.295 709.444Q251.227 706.139 249.222 702.796Q247.216 699.454 245.274 696.074Q243.331 692.695 241.451 689.28Q239.572 685.865 237.757 682.415Q235.941 678.966 234.19 675.483Q232.44 672 230.754 668.485Q229.069 664.97 227.449 661.425Q225.83 657.879 224.276 654.304Q222.723 650.729 221.237 647.125Q217.99 639.284 215.042 631.326Q212.093 623.368 209.447 615.304Q206.801 607.24 204.461 599.082Q202.121 590.925 200.091 582.684Q198.06 574.444 196.342 566.133Q194.625 557.822 193.221 549.452Q191.818 541.082 190.732 532.665Q189.646 524.248 188.878 515.796C186.664 490.774 187.006 465.777 187.074 440.687L187.039 360.372C202.851 369.887 217.986 380.587 233.43 390.685Q282.621 422.644 331.357 455.293C391.579 495.545 452.293 535.128 512.07 576.041C521.354 570.489 530.261 563.988 539.252 557.952Q564.869 541.02 590.258 523.748L717.723 439.178L774.313 401.51C795.361 387.466 816.186 373.476 837.916 360.475Z"/>
	<path fill="rgba(0,0,0,0)" d="M256.964 528.81C258.637 532.893 259.545 537.507 260.761 541.756Q263.691 551.801 266.948 561.744C293.653 643.554 350.349 726.171 419.806 777.521C441.265 793.386 464.159 806.019 487.899 818.073C481.461 817.525 473.871 814.354 467.581 812.456Q463.206 811.129 458.873 809.67Q454.54 808.211 450.254 806.621Q445.968 805.031 441.732 803.311Q437.496 801.591 433.314 799.744Q429.132 797.896 425.008 795.923Q420.884 793.949 416.822 791.851Q412.76 789.752 408.764 787.532Q404.768 785.311 400.841 782.97Q396.914 780.629 393.06 778.169Q389.206 775.71 385.429 773.135Q381.651 770.56 377.954 767.871Q374.256 765.182 370.642 762.382Q367.028 759.582 363.501 756.673Q359.973 753.764 356.536 750.75Q353.099 747.736 349.755 744.618Q346.411 741.501 343.163 738.283Q341.078 736.15 339.036 733.977Q336.994 731.803 334.995 729.589Q332.996 727.376 331.042 725.123Q329.088 722.87 327.178 720.579Q325.269 718.288 323.405 715.96Q321.542 713.631 319.724 711.266Q317.907 708.901 316.138 706.501Q314.368 704.1 312.646 701.665Q310.924 699.23 309.25 696.761Q307.577 694.293 305.953 691.791Q304.329 689.29 302.755 686.757Q301.18 684.224 299.657 681.66Q298.133 679.096 296.66 676.503Q295.188 673.909 293.767 671.287Q292.346 668.665 290.977 666.015Q289.608 663.365 288.292 660.689Q286.977 658.012 285.714 655.31Q284.451 652.608 283.242 649.882Q282.034 647.155 280.879 644.406Q279.724 641.656 278.625 638.883Q277.525 636.111 276.48 633.318Q275.435 630.524 274.446 627.711Q273.457 624.897 272.524 622.064Q271.591 619.232 270.714 616.381Q269.837 613.531 269.017 610.663Q268.197 607.796 267.433 604.913Q266.67 602.029 265.964 599.132Q265.258 596.234 264.61 593.323Q263.961 590.412 263.371 587.489Q262.78 584.565 262.248 581.631Q261.715 578.696 261.241 575.752Q260.767 572.807 260.351 569.854C258.372 556.41 256.879 542.398 256.964 528.81Z"/>
</svg>
